PathFileType	4	(X/Y/Z)	..\data\2014029\dynamic\2014029_C5_05.trc
DataRate	CameraRate	NumFrames	NumMarkers	Units	OrigDataRate	OrigDataStartFrame	OrigNumFrames
100.000000	100.000000	4	52	mm	100.000000	0	172
Frame#	Time	L_IAS			L_IPS			R_IPS			R_IAS			L_FTC			L_FLE			L_FME			L_FAX			L_TTC			L_FAL			L_TAM			L_FCC			L_FM1			L_FM2			L_FM5			R_FTC			R_FLE			R_FME			R_FAX			R_TTC			R_FAL			R_TAM			R_FCC			R_FM1			R_FM2			R_FM5			CV7			TV10			SXS			SJN			L_SIA			L_SRS			L_SAA			L_SAE			L_HLE			L_HME			L_UOA			L_RSP			L_UHE			L_HM2			L_HM5			R_SIA			R_SRS			R_SAA			R_SAE			R_HLE			R_HME			R_UOA			R_RSP			R_UHE			R_HM2			R_HM5			
		X1	Y1	Z1	X2	Y2	Z2	X3	Y3	Z3	X4	Y4	Z4	X5	Y5	Z5	X6	Y6	Z6	X7	Y7	Z7	X8	Y8	Z8	X9	Y9	Z9	X10	Y10	Z10	X11	Y11	Z11	X12	Y12	Z12	X13	Y13	Z13	X14	Y14	Z14	X15	Y15	Z15	X16	Y16	Z16	X17	Y17	Z17	X18	Y18	Z18	X19	Y19	Z19	X20	Y20	Z20	X21	Y21	Z21	X22	Y22	Z22	X23	Y23	Z23	X24	Y24	Z24	X25	Y25	Z25	X26	Y26	Z26	X27	Y27	Z27	X28	Y28	Z28	X29	Y29	Z29	X30	Y30	Z30	X31	Y31	Z31	X32	Y32	Z32	X33	Y33	Z33	X34	Y34	Z34	X35	Y35	Z35	X36	Y36	Z36	X37	Y37	Z37	X38	Y38	Z38	X39	Y39	Z39	X40	Y40	Z40	X41	Y41	Z41	X42	Y42	Z42	X43	Y43	Z43	X44	Y44	Z44	X45	Y45	Z45	X46	Y46	Z46	X47	Y47	Z47	X48	Y48	Z48	X49	Y49	Z49	X50	Y50	Z50	X51	Y51	Z51	X52	Y52	Z52	

1	0	-1318.482543945313	1031.757690429688	87.27414703369126	-1520.776977539063	1029.569213867188	178.9893341064451	-1514.874755859375	1020.6650390625	278.7118835449218	-1307.468139648438	1030.069091796875	338.360137939453	-1419.19970703125	945.7485961914065	26.47364997863753	-1520.435302734375	508.0340270996095	77.88963317871077	-1517.56494140625	487.9165344238282	202.571563720703	-1554.82275390625	448.2264709472657	74.48181152343733	-1491.4580078125	423.2716674804689	135.3049163818358	-1684.850830078125	98.70121002197268	124.8638839721678	-1646.622680664063	105.7065963745117	222.538619995117	-1743.542358398438	48.0874481201172	172.7119750976561	-1519.849853515625	17.02517700195313	193.7841339111327	-1529.495239257813	36.3094711303711	138.682418823242	-1590.011840820313	19.03114128112793	89.14657592773419	-1398.882568359375	914.8044433593752	401.1091613769531	-1209.069213867188	504.944061279297	372.0554199218749	-1192.16357421875	485.2462768554689	244.3549499511718	-1204.299194335938	436.1701965332032	373.4583435058593	-1128.47802734375	464.096405029297	323.4220581054687	-1045.873413085938	93.37147521972658	329.5155944824218	-1016.1669921875	124.4291305541992	236.4595336914062	-1061.876708984375	21.84258270263672	271.9267272949218	-866.9584960937502	116.7823562622071	254.0049438476562	-881.046813964844	114.5589904785157	309.5807800292968	-898.044372558594	78.8724822998047	351.4755554199218	-1412.34375	1564.3447265625	197.3879852294921	-1517.781982421875	1302.072021484375	211.1922302246092	-1267.110717773438	1260.283569335938	212.183120727539	-1292.226806640625	1454.92626953125	208.6067657470702	-1532.202270507813	1339.192626953125	100.272003173828	-1479.83203125	1487.320434570313	91.67057037353499	-1421.910400390625	1481.343383789063	-18.1349296569826	-1363.688842773438	1481.244750976563	-16.33075714111345	-1301.333129882813	1148.34130859375	-136.1335601806643	-1339.368408203125	1114.40673828125	-53.03141021728533	-1339.711791992188	1104.686279296875	-102.3727951049807	-1059.458251953125	993.7666625976565	-88.5986480712892	-1114.574096679688	957.691345214844	-147.9293365478517	-983.0704345703127	954.997741699219	-89.57877349853528	-1051.832153320313	899.0740356445315	-159.4053192138674	-1543.650390625	1344.2587890625	287.7585449218749	-1491.626342773438	1488.97509765625	291.896514892578	-1456.670043945313	1492.551391601563	401.0794067382812	-1406.931640625	1495.6142578125	420.8401489257812	-1510.398803710938	1156.397583007813	483.4124145507812	-1512.217041015625	1140.043701171875	391.1382446289062	-1537.246826171875	1139.561645507813	445.7546081542968	-1408.09765625	880.924255371094	491.7838439941406	-1495.5810546875	893.463073730469	518.1281738281249	-1391.792236328125	788.7056884765627	499.6414184570312	-1506.580932617188	806.6700439453127	525.2982788085936	
2	0.01	-1304.73095703125	1030.449584960938	86.97013854980455	-1506.509643554688	1027.633666992188	179.9102630615233	-1500.412109375	1018.9052734375	279.4609374999999	-1292.802124023438	1028.5478515625	338.2034301757811	-1406.381591796875	944.6737060546877	26.6434421539305	-1510.132934570313	507.8174133300782	77.65532684326155	-1507.135620117188	487.5801086425782	202.4169921874999	-1545.338012695313	448.4729614257814	74.27297973632795	-1482.47216796875	422.3766479492189	135.104278564453	-1683.219848632813	101.6534881591797	123.8996963500975	-1645.564819335938	108.0745010375977	221.9068603515624	-1743.338012695313	52.31510543823244	171.4974060058592	-1519.63427734375	17.024658203125	193.7116699218749	-1529.148071289063	36.44067764282227	138.5462951660155	-1589.647338867188	19.19082641601563	89.07546997070294	-1383.839233398438	913.1670532226565	401.2290649414062	-1195.73095703125	502.9753417968751	371.3143920898436	-1179.320434570313	483.3773193359376	243.5921630859374	-1190.707763671875	434.2003173828126	372.7257995605468	-1115.268432617188	462.4633789062501	322.3310852050781	-1030.551025390625	92.59018707275392	328.1261596679687	-1001.507568359375	123.8951568603516	234.893814086914	-1046.837524414063	21.4572982788086	270.5941772460937	-852.2064208984377	116.4735260009766	250.5677032470703	-865.4936523437502	113.4885330200196	306.3843383789062	-881.9901123046877	77.31399536132814	348.1140441894531	-1398.498291015625	1562.773681640625	198.8904876708983	-1503.894653320313	1300.512939453125	212.0810699462889	-1253.291137695313	1258.685791015625	212.7468719482421	-1278.329345703125	1453.289306640625	209.8211517333983	-1518.659545898438	1337.897338867188	101.4234390258787	-1466.160888671875	1486.109985351563	92.91850280761702	-1408.073364257813	1480.210815429688	-16.73351860046404	-1349.946655273438	1480.187622070313	-14.91027259826677	-1286.677490234375	1148.029296875	-135.5475769042971	-1324.7373046875	1113.494140625	-52.60229110717791	-1325.014404296875	1103.848754882813	-102.0246429443361	-1043.610717773438	995.7427368164065	-87.09111785888686	-1098.013549804688	959.2800292968752	-146.9598999023439	-966.7631835937502	958.090759277344	-87.87567901611341	-1034.38427734375	901.5310668945315	-158.4274749755861	-1529.67333984375	1342.352416992188	288.5921325683593	-1477.736572265625	1487.093994140625	293.1733398437499	-1442.891235351563	1490.422119140625	402.3406066894531	-1393.251708984375	1493.470336914063	422.1638183593749	-1496.497436523438	1154.01611328125	483.7190246582031	-1498.3486328125	1137.902709960938	391.4153137207031	-1523.427368164063	1137.236694335938	445.9855651855468	-1394.123779296875	878.5885009765627	491.2750854492187	-1481.639526367188	890.983093261719	517.6726684570311	-1377.87939453125	786.3140869140627	498.5908813476562	-1492.591796875	804.1300048828127	524.4849243164061	
3	0.02	-1290.59912109375	1029.279296875	86.81549072265611	-1491.872436523438	1025.920532226563	180.8057708740233	-1485.701049804688	1017.436401367188	280.1766662597655	-1277.92431640625	1027.43017578125	338.1575927734374	-1393.127807617188	943.6832275390627	26.90402221679671	-1499.319213867188	507.7302856445314	77.42935943603499	-1496.26171875	487.3260192871095	202.3101196289061	-1535.375366210938	448.8403320312501	74.04692840576155	-1472.992431640625	421.5641174316407	134.8807830810545	-1681.386474609375	105.0386352539063	122.8337326049803	-1644.231689453125	110.8111190795899	221.1427764892577	-1742.927124023438	57.1252784729004	170.2286834716795	-1519.482788085938	16.93186378479004	193.6663513183592	-1528.848022460938	36.52071762084962	138.4467926025389	-1589.323608398438	19.33299636840821	89.00422668457013	-1368.511962890625	911.980163574219	401.4873352050781	-1182.137451171875	501.3616027832032	370.6346435546874	-1166.306640625	481.8552246093751	242.8832092285155	-1177.199829101563	432.5476989746095	372.018585205078	-1102.032104492188	460.7421264648439	321.1946411132812	-1017.829467773438	91.26531219482423	326.4564208984374	-989.2301025390627	122.5290222167969	233.0419006347656	-1035.02685546875	20.82257652282715	269.0528564453124	-839.993103027344	114.0757904052735	247.1678924560546	-852.6158447265627	110.5827178955078	303.1827697753906	-868.9600219726565	74.2262649536133	344.8036499023437	-1384.532104492188	1561.466918945313	200.5343475341796	-1489.77734375	1299.150024414063	212.9580535888671	-1239.213012695313	1257.4111328125	213.3867187499999	-1264.282592773438	1451.957153320313	211.1191406249999	-1504.916381835938	1336.840698242188	102.6593856811522	-1452.375610351563	1485.164916992188	94.32814788818342	-1394.167114257813	1479.395629882813	-15.17580795288103	-1336.15576171875	1479.46826171875	-13.39137744903581	-1272.451049804688	1147.847778320313	-134.7136840820314	-1310.510131835938	1112.87646484375	-51.83258438110369	-1310.759399414063	1103.241577148438	-101.3259582519533	-1028.485595703125	997.3608398437502	-85.46129608154311	-1082.329956054688	960.5801391601565	-145.7457733154299	-951.2678833007815	960.6397094726565	-86.10554504394544	-1017.995910644531	903.5466308593752	-157.2303466796876	-1515.5205078125	1340.653564453125	289.491485595703	-1463.68994140625	1485.436279296875	294.5822448730468	-1428.923950195313	1488.488403320313	403.7363586425781	-1379.400024414063	1491.521240234375	423.6118164062499	-1482.362670898438	1151.818725585938	484.1412658691406	-1484.30859375	1135.963745117188	391.8146667480468	-1509.357543945313	1135.091918945313	446.3509521484374	-1379.91064453125	876.4498291015627	490.8128662109374	-1467.45458984375	888.6834716796877	517.2717285156249	-1363.695556640625	784.1279296875002	497.6154479980468	-1478.344116210938	801.7552490234377	523.7147216796874	
4	0.03	-1276.084594726563	1028.260498046875	86.81572723388658	-1476.868774414063	1024.473022460938	181.661422729492	-1470.727416992188	1016.290344238281	280.8527526855468	-1262.821655273438	1026.744384765625	338.2232360839843	-1379.408203125	942.7792968750002	27.25775146484359	-1487.909423828125	507.7626953125001	77.20986175537092	-1484.796997070313	487.1084899902345	202.2312622070311	-1524.85546875	449.3282165527345	73.8033142089842	-1462.905517578125	420.804901123047	134.5852661132811	-1679.262817382813	108.9059829711914	121.7238693237303	-1642.46533203125	113.9187927246094	220.2631835937499	-1742.16259765625	62.59567642211915	169.0176544189451	-1519.4501953125	16.72461318969727	193.6664886474608	-1528.645874023438	36.52392196655274	138.4189300537108	-1589.09130859375	19.49228668212891	88.9772186279295	-1352.912475585938	911.2605590820315	401.8842163085937	-1168.391479492188	500.0868225097657	370.0367126464843	-1153.246337890625	480.6568908691407	242.242218017578	-1163.82080078125	431.2010192871095	371.3653564453124	-1088.835083007813	458.9713745117189	320.0267333984374	-1007.37744140625	89.4671096801758	324.5751647949218	-979.047790527344	120.4078674316407	230.9615325927734	-1026.082397460938	19.9907398223877	267.4034118652343	-829.9930419921877	109.725326538086	243.8627319335937	-842.080993652344	106.0043106079102	300.0464477539062	-858.611755371094	69.76418304443361	341.6595458984374	-1370.440795898438	1560.4501953125	202.3219451904296	-1475.423583984375	1298.005737304688	213.8316345214843	-1224.867797851563	1256.488403320313	214.1063842773437	-1250.081176757813	1450.959594726563	212.5042572021484	-1490.962890625	1336.040893554688	103.9912719726561	-1438.472534179688	1484.509765625	95.916664123535	-1380.198608398438	1478.916870117188	-13.45848751068132	-1322.315551757813	1479.10107421875	-11.7733469009401	-1258.661987304688	1147.799194335938	-133.6318359375002	-1296.70166015625	1112.560668945313	-50.73008346557634	-1296.949951171875	1102.87158203125	-100.2825012207033	-1014.079895019531	998.6166992187502	-83.72543334960952	-1067.524780273438	961.5755004882815	-144.2935943603517	-936.5820312500002	962.6258544921877	-84.28345489501966	-1002.673095703125	905.0935668945315	-155.813430786133	-1501.177490234375	1339.174194335938	290.4606933593749	-1449.4814453125	1484.022338867188	296.1271667480468	-1414.763549804688	1486.768798828125	405.2701721191406	-1365.364868164063	1489.788452148438	425.1882934570312	-1467.99658203125	1149.8251953125	484.6731262207031	-1470.080200195313	1134.245361328125	392.3301391601562	-1495.033569335938	1133.152587890625	446.8438415527343	-1365.465087890625	874.5227661132815	490.3930969238281	-1453.026245117188	886.586608886719	516.9270019531249	-1349.244506835938	782.1669921875002	496.7251586914062	-1463.840942382813	799.5715942382815	522.9990234374999	
